<?xml version="1.0" encoding="utf-8"?>
<!-- Generator: Adobe Illustrator 25.0.0, SVG Export Plug-In . SVG Version: 6.00 Build 0)  -->
<svg version="1.1" xmlns="http://www.w3.org/2000/svg" xmlns:xlink="http://www.w3.org/1999/xlink" x="0px" y="0px"
	 viewBox="0 0 1193 319" style="enable-background:new 0 0 1193 319;" xml:space="preserve">
<style type="text/css">
	.st0{display:none;}
	.st1{display:inline;}
	.st2{fill-rule:evenodd;clip-rule:evenodd;fill:url(#Fill-1_1_);}
	.st3{fill-rule:evenodd;clip-rule:evenodd;fill:url(#Fill-4_1_);}
	.st4{fill-rule:evenodd;clip-rule:evenodd;fill:url(#Fill-7_1_);}
	.st5{fill-rule:evenodd;clip-rule:evenodd;fill:url(#Fill-10_1_);}
	.st6{fill-rule:evenodd;clip-rule:evenodd;fill:url(#Fill-13_1_);}
	.st7{fill-rule:evenodd;clip-rule:evenodd;fill:#ED2129;}
	.st8{fill-rule:evenodd;clip-rule:evenodd;fill:#FFFFFF;}
	.st9{fill-rule:evenodd;clip-rule:evenodd;fill:url(#Fill-27_1_);}
	.st10{fill-rule:evenodd;clip-rule:evenodd;fill:url(#Fill-30_1_);}
	.st11{fill:url(#SVGID_1_);}
	.st12{fill:url(#SVGID_2_);}
	.st13{fill:url(#SVGID_3_);}
	.st14{fill:url(#SVGID_4_);}
	.st15{fill:url(#SVGID_5_);}
	.st16{fill:#ED2129;}
	.st17{fill:#FFFFFF;}
	.st18{fill:url(#SVGID_6_);}
	.st19{fill:url(#SVGID_7_);}
</style>
<g id="Layer_1" class="st0">
	<g id="Page-1" class="st1">
		<g id="Group-72">
			<g id="Group-3" transform="translate(160.000000, 104.800000)">
				<g id="Clip-2">
				</g>
				
					<linearGradient id="Fill-1_1_" gradientUnits="userSpaceOnUse" x1="-1037.9127" y1="7.3145" x2="-1037.9127" y2="9.3867" gradientTransform="matrix(95.6693 0 0 93.5348 99344.2031 -759.1808)">
					<stop  offset="0" style="stop-color:#F6BA17"/>
					<stop  offset="1" style="stop-color:#F4951F"/>
				</linearGradient>
				<path id="Fill-1" class="st2" d="M7.5,1.4c-1.9,4.7-4.5,9-5.4,14.1l0,0c-1.6,9.4-2.6,18.8-1.7,28.3l0,0
					c1,11.1,5.5,21.7,12.7,30.2l0,0c6.9,8.2,16,14.3,26.2,17.5l0,0c7.4,2.5,15.2,3.4,22.9,2.5l0,0c6.7-0.8,13.1-2.5,18.9-6l0,0
					c3.4-2.2,6.7-4.5,9.8-7.1l0,0c1.7-1.6,3.3-3.3,4.7-5.2l0,0c-0.6,0-1.2,0.2-1.6,0.6l0,0c-2.9,2.1-5.7,4.5-8.9,6.2l0,0
					c-10,5.5-21.6,7.3-32.8,5.2l0,0c-16.9-3-30.5-11.3-39.7-26.1l0,0c-5.1-8.3-8-17.7-8.3-27.4l0,0c0-9.3,0.9-18.6,2.9-27.6l0,0
					C7.6,4.7,8,2.9,8.4,0.8l0,0C7.9,1.1,7.6,1.2,7.5,1.4"/>
			</g>
			<g id="Group-6" transform="translate(293.000000, 97.800000)">
				<g id="Clip-5">
				</g>
				
					<linearGradient id="Fill-4_1_" gradientUnits="userSpaceOnUse" x1="2509.4578" y1="3619.5715" x2="2509.6477" y2="3619.5715" gradientTransform="matrix(0.19 0 0 0.21 -476.22 -758.76)">
					<stop  offset="0" style="stop-color:#F6BA17"/>
					<stop  offset="1" style="stop-color:#F4951F"/>
				</linearGradient>
				<polygon id="Fill-4" class="st3" points="0.7,1.5 0.6,1.3 0.5,1.2 				"/>
			</g>
			<g id="Group-9" transform="translate(220.000000, 31.800000)">
				<g id="Clip-8">
				</g>
				
					<linearGradient id="Fill-7_1_" gradientUnits="userSpaceOnUse" x1="-1157.7441" y1="5.0795" x2="-1156.7441" y2="5.0795" gradientTransform="matrix(87.9408 0 0 165.97 101813.1094 -759.8503)">
					<stop  offset="0" style="stop-color:#F6BA17"/>
					<stop  offset="1" style="stop-color:#F4951F"/>
				</linearGradient>
				<path id="Fill-7" class="st4" d="M1.9,0.5C-0.8,7.9-0.4,15.1,3.3,22l0,0c4.1,7.5,9.7,14,16.5,19.2l0,0
					c7.2,5.5,14.5,10.8,21.8,16l0,0c8,5.8,16,11.7,22.6,19.2l0,0c5.9,6.5,10.5,14.1,13.6,22.3l0,0c4.7,12.7,6.5,26.4,5.2,39.9l0,0
					c-0.7,7.4-2.5,14.6-5.5,21.4l0,0c-0.9,2-1.8,4-2.8,6l0,0l0.5,0.2c0.6-1.1,1.1-2.2,1.8-3.3l0,0c3.3-5.1,5.8-10.6,7.6-16.4l0,0
					c2.4-7.4,3.5-15.1,3.3-22.9l0,0c-0.3-5.7-0.9-11.5-1.9-17.1l0,0c-2.9-17.7-11.9-32-25.1-43.7l0,0c-7.1-6.3-15-11.6-22.7-17l0,0
					C30,39.9,21.8,34.1,15.1,26.3l0,0C10,20.6,6.3,13.9,4.1,6.6l0,0C3.5,4.5,3,2.4,2.4,0.2l0,0C2.1,0.3,1.9,0.4,1.9,0.5"/>
			</g>
			<g id="Group-12" transform="translate(148.000000, 0.800000)">
				<g id="Clip-11">
				</g>
				
					<linearGradient id="Fill-10_1_" gradientUnits="userSpaceOnUse" x1="-1017.1017" y1="3.5473" x2="-1017.1017" y2="4.2003" gradientTransform="matrix(165.0837 0 0 236.2767 167989.9219 -759.8113)">
					<stop  offset="0" style="stop-color:#F47E1F"/>
					<stop  offset="1" style="stop-color:#ED2326"/>
				</linearGradient>
				<path id="Fill-10" class="st5" d="M81.5,0.9C75,12,69.6,23.6,66.7,36.3l0,0c-4.1,18.3-0.5,34.8,11.2,49.5l0,0
					c2.9,3.7,6,7.2,9.3,10.6l0,0c5.2,5.4,10.7,10.5,16.1,15.8l0,0c4.2,4,7.9,8.5,11,13.4l0,0c5.3,8.2,6.4,18.4,3,27.6l0,0
					c-1.6,4.7-3.9,9.2-6.6,13.3l0,0c-10.8,16.2-26.2,22.5-45.2,19.7l0,0C43.4,182.9,22,164.7,22.2,135l0,0
					c0.1-9.2,1.3-18.4,3.4-27.4l0,0c4.2-18,10.5-35.4,18.8-51.9l0,0c0.4-0.8,0.8-1.7,1.2-2.6l0,0c-0.7,0.3-1.3,0.8-1.7,1.4l0,0
					c-6.7,10.5-13.6,20.9-20,31.6l0,0c-7.5,12.4-13.7,25.5-18.4,39.2l0,0c-4.4,13.4-6.4,27-4.1,41.1l0,0
					C7.3,204.2,38.9,233.5,77,236l0,0c22.3,1.5,42.2-4.9,59.5-19.1l0,0c15.3-12.6,24.8-28.8,28.1-48.4l0,0
					c1.5-9.1,1.1-18.2-0.1-27.3l0,0c-2.1-15.3-7.6-29.2-17.4-41.2l0,0c-0.4-0.5-0.7-1-1.1-1.7l0,0c-10.4-11.7-22.8-19.1-35.2-28.4
					l0,0c-5-3.4-9.8-7.2-14.3-11.2l0,0c-8.1-7.5-13.9-16.4-15.9-27.4l0,0c-1.2-7.2-1.2-14.6,0.1-21.9l0,0c0.5-3.1,1.1-6.2,1.8-9.5
					l0,0C81.9,0.4,81.7,0.7,81.5,0.9L81.5,0.9z M146.9,197c0.9-2,1.9-4,2.8-6l0,0c3-6.8,4.8-14,5.5-21.4l0,0
					c1.3-13.5-0.5-27.1-5.2-39.9l0,0c-3.1-8.2-7.8-15.8-13.6-22.3l0,0c-6.6-7.5-14.6-13.4-22.6-19.2l0,0c-7.3-5.3-14.7-10.5-21.8-16
					l0,0C85.1,67,79.5,60.5,75.3,53l0,0c-3.8-6.8-4.1-14.1-1.5-21.4l0,0c0.1-0.1,0.3-0.2,0.6-0.4l0,0c0.6,2.2,1.1,4.4,1.7,6.5l0,0
					C78.3,45,82,51.7,87,57.4l0,0c6.7,7.7,15,13.5,23.2,19.3l0,0c7.8,5.4,15.6,10.7,22.7,17l0,0c13.2,11.8,22.2,26.1,25.1,43.7l0,0
					c1,5.7,1.7,11.4,1.9,17.1l0,0c0.2,7.8-0.9,15.5-3.3,22.9l0,0c-1.8,5.8-4.3,11.3-7.6,16.4l0,0c-0.7,1-1.2,2.2-1.8,3.3l0,0
					L146.9,197z M51.4,195.4c-10.2-3.2-19.3-9.3-26.2-17.5l0,0c-7.3-8.5-11.7-19.1-12.7-30.2l0,0c-0.9-9.5,0.1-18.9,1.7-28.3l0,0
					c0.9-5.1,3.5-9.4,5.4-14.1l0,0c0.1-0.2,0.4-0.3,0.8-0.6l0,0c-0.4,2.1-0.8,3.9-1.1,5.7l0,0c-2,9.1-2.9,18.4-2.6,27.7l0,0
					c0.3,9.7,3.2,19.1,8.3,27.4l0,0c9.2,14.8,22.8,23,39.7,26.1l0,0c11.2,2.1,22.8,0.2,32.8-5.2l0,0c3.2-1.7,5.9-4.1,8.9-6.2l0,0
					c0.4-0.4,1-0.6,1.6-0.6l0,0c-1.4,1.8-3,3.6-4.7,5.2l0,0c-3.1,2.6-6.4,5-9.8,7.1l0,0c-5.8,3.5-12.2,5.2-18.9,6l0,0
					c-1.9,0.2-3.9,0.3-5.8,0.3l0,0C62.7,198.3,56.9,197.3,51.4,195.4L51.4,195.4z"/>
			</g>
			<g id="Group-15" transform="translate(279.000000, 53.800000)">
				<g id="Clip-14">
				</g>
				
					<linearGradient id="Fill-13_1_" gradientUnits="userSpaceOnUse" x1="-1259.3801" y1="20.6581" x2="-1259.3801" y2="21.5608" gradientTransform="matrix(30.0975 0 0 36.803 37919.8438 -759.5331)">
					<stop  offset="0" style="stop-color:#F6BA17"/>
					<stop  offset="1" style="stop-color:#F4951F"/>
				</linearGradient>
				<path id="Fill-13" class="st6" d="M0.6,4.3c9.9-2,18,0.8,22.6,9.7l0,0c4.1,8.1,3,16.2-3.4,23.3l0,0c5.3-1.5,10.3-8.6,10.8-14.8
					l0,0c0.9-10-4.1-16.9-11.8-20.5l0,0c-2.1-1-4.7-1.5-7.3-1.5l0,0C7.3,0.5,3,1.8,0.6,4.3"/>
			</g>
			<g id="Group-26" transform="translate(264.000000, 48.800000)">
				<path id="Fill-16" class="st7" d="M45.6,27.5C45,33.6,40,40.8,34.8,42.3c6.5-7.1,7.6-15.2,3.4-23.3c-4.5-9-12.6-11.7-22.6-9.7
					c3.8-4,12.6-5,18.2-2.3C41.5,10.6,46.5,17.5,45.6,27.5 M50.9,21C48.8,9,38.5,0.2,26.3,0.1C20.4,0,14.6,2.1,10,5.9
					C3.7,11.1,0.8,18,0.8,26.3v0.5c10.3,7.3,20.4,14,29,23.8l-0.1-0.2C36.8,49,42.5,45.7,46.6,40C50.6,34.5,52.1,27.6,50.9,21"/>
				<path id="Fill-18" class="st8" d="M172.2,26.3h42.3c9,33.4,17.9,66.8,26.9,100.1l0.6,0.1c10.9-33.3,21.9-66.7,32.8-100.1H307
					l30.5,99.9h0.6c3.4-11,6.5-22.1,9.8-33.1s6.5-22.3,9.8-33.4l9.8-33.4h42.1l-49.8,155.9h-41.4c-9.4-29.8-18.8-59.6-28.2-89.5
					h-0.7c-9.9,29.8-19.7,59.7-29.6,89.5h-41.3C203.2,130.4,187.7,78.6,172.2,26.3"/>
				<path id="Fill-20" class="st8" d="M536.8,104.9c0.5-24.8-20.8-44.1-44.1-44.1c-23,0-44.3,18-44.7,43.9
					c-0.4,20.9,17.4,44,44.2,44.1C518.2,148.8,537.3,127.3,536.8,104.9 M492.5,21.6c12.5-0.1,24.6,1.7,36.2,6.5
					c18.7,7.7,32.2,21.1,41.4,38.8c7.3,14.1,9.9,29.1,8.5,44.8c-2.3,26.9-15,47.7-37.1,62.9c-9.3,6.3-19.7,10-30.8,11.8
					c-15.3,2.5-30.6,2.2-45.6-2c-21.9-6.1-38.1-19.7-48.8-39.4c-12.8-23.4-13.4-47.6-3.6-72.2c7.2-18.2,19.4-32.2,36.7-41.5
					c11.9-6.3,24.8-9.1,38.2-9.6C489.2,21.6,490.9,21.6,492.5,21.6"/>
				<path id="Fill-22" class="st8" d="M634.1,96c3.9,0,7.8,0.2,11.5-0.1c3.1-0.2,6.1-0.9,9-1.9c7.3-2.7,11.7-9.7,11.6-18
					c0-7.8-4.9-14.7-12.2-17.2c-1.7-0.6-3.5-1-5.3-1.3c-4.8-0.8-9.7-0.4-14.7-0.5L634.1,96z M723,182.2c-1.4,0.1-2.2,0.1-3,0.1
					c-14.9,0-29.8,0-44.6,0.1c-1.7,0.1-3.3-0.8-4.1-2.3c-11.7-18.3-23.5-36.5-35.2-54.7c-0.5-0.8-1.2-1.5-2-2v58.8h-40.4V26.4
					c0.9-0.1,1.7-0.2,2.4-0.2h60.7c7.4-0.1,14.7,1,21.7,3.4c13.5,4.8,22.3,14.3,27,27.6c3.8,10.7,3.9,22.4,0.5,33.2
					c-3.9,13-12.5,21.7-25.3,26c-2,0.7-4,1.2-6.4,2c5.3,7.3,10.8,14.2,16.1,21.2c5.4,7,10.7,14,16.1,21
					C711.8,167.6,717.2,174.7,723,182.2L723,182.2z"/>
				<path id="Fill-24" class="st8" d="M830.7,99.1l58.8,83.1c-1.1,0.1-1.7,0.2-2.2,0.2c-14.7,0-29.4,0-44.1,0.1
					c-1.5,0.1-3-0.7-3.7-2.1c-9.8-15-19.7-30.1-29.6-45.1l-2.5-3.7c-0.8,1-1.4,1.7-1.9,2.5c-10.6,15.3-21.1,30.7-31.6,46
					c-0.9,1.6-2.6,2.5-4.4,2.4c-14.3-0.1-28.7-0.1-43-0.1h-2.3c-0.1-0.1-0.1-0.3-0.2-0.4c0-0.1,0-0.2,0-0.3c0.1-0.2,0.1-0.3,0.2-0.5
					L784,99.5c0.1-0.2,0.2-0.4,0.2-0.6l-49.7-72.5c1.4-0.1,2.1-0.1,2.9-0.1c14.7,0,29.4,0,44.1-0.1c1.7-0.1,3.3,0.8,4,2.4
					c6.7,11.9,13.6,23.8,20.4,35.7c0.4,0.8,0.9,1.5,1.5,2.5c0.7-1.1,1.3-1.9,1.8-2.8c7.1-11.8,14.2-23.7,21.2-35.5
					c0.7-1.5,2.2-2.4,3.8-2.2c14.8,0.1,29.6,0.1,44.4,0.1c0.7,0,1.4,0.1,2,0.1c0.1,0.2,0.2,0.3,0.2,0.4s0,0.2,0,0.3L830.7,99.1z"/>
			</g>
			<g id="Group-29" transform="translate(0.000000, 74.800000)">
				<g id="Clip-28">
				</g>
				
					<linearGradient id="Fill-27_1_" gradientUnits="userSpaceOnUse" x1="-720.2945" y1="4.8955" x2="-720.2945" y2="5.8937" gradientTransform="matrix(139.48 0 0 155.6 100536.4766 -759.4124)">
					<stop  offset="0" style="stop-color:#F47C26"/>
					<stop  offset="1" style="stop-color:#ED2828"/>
				</linearGradient>
				<path id="Fill-27" class="st9" d="M0,0.6v155.6h40.4V91.5h58.8v3.4v58.3c0,1,0.1,2.1,0.2,3.1l0,0h40.2V0.6H99.1v59.8H40.3V3.7
					c0-1-0.1-2.1-0.1-3.1l0,0C40.2,0.6,0,0.6,0,0.6z"/>
			</g>
			<g id="Group-32" transform="translate(320.000000, 74.800000)">
				<g id="Clip-31">
				</g>
				
					<linearGradient id="Fill-30_1_" gradientUnits="userSpaceOnUse" x1="-1358.7203" y1="4.8884" x2="-1358.7203" y2="5.8853" gradientTransform="matrix(107.0886 0 0 155.8198 145558.0156 -759.3549)">
					<stop  offset="0" style="stop-color:#F47C26"/>
					<stop  offset="1" style="stop-color:#ED2828"/>
				</linearGradient>
				<path id="Fill-30" class="st10" d="M1.4,0.6C0.8,3.9,0.9,31.9,1.6,34.1l0,0h32.5v81.6c0,6.7,0,13.4,0,20.1l0,0
					c0,6.8-0.1,13.6,0.1,20.3l0,0c4.5,0.6,38.3,0.4,40.5-0.3l0,0V34h33.4V0.6H1.4z"/>
			</g>
			<g id="Group-71" transform="translate(0.000000, 0.800000)">
				<g id="Group-35" transform="translate(1157.000000, 199.000000)">
					<g id="Clip-34">
					</g>
					<path id="Fill-33" class="st8" d="M17.4,16.6h2.2c0.8,0,1.5-0.1,2.2-0.3c0.7-0.2,1.3-0.5,1.7-1c0.5-0.6,0.7-1.4,0.7-2.2
						c0-0.6-0.1-1.3-0.4-1.8c-0.3-0.4-0.7-0.8-1.1-1c-0.5-0.2-1-0.4-1.6-0.5s-1.2-0.1-1.8-0.1h-5.6v7L17.4,16.6z M26.6,27.6h-2.9
						l-5.6-9.1h-4.4v9.1h-2.4V8h8.6c2.6,0,4.4,0.5,5.4,1.4c1,1,1.6,2.4,1.5,3.8c0,0.8-0.1,1.7-0.5,2.5c-0.3,0.7-0.7,1.2-1.3,1.6
						c-0.6,0.4-1.3,0.8-2,0.9c-0.8,0.2-1.6,0.3-2.4,0.3L26.6,27.6z M17.9,33.1c2,0,4.1-0.4,5.9-1.2s3.4-1.9,4.7-3.2
						c1.3-1.4,2.4-3.1,3.1-4.9c1.5-3.9,1.5-8.1,0-12C30.8,10,29.8,8.4,28.5,7s-2.9-2.5-4.7-3.2c-1.9-0.8-3.9-1.2-5.9-1.2
						S13.8,3,12,3.8C10.2,4.5,8.6,5.6,7.2,7c-1.3,1.4-2.4,3-3.1,4.8c-1.5,3.9-1.5,8.1,0,12c0.7,1.8,1.8,3.4,3.1,4.9
						c1.3,1.4,2.9,2.5,4.7,3.2C13.8,32.7,15.8,33.1,17.9,33.1L17.9,33.1z M17.9,35.4c-2.4,0-4.7-0.5-6.9-1.4
						c-4.2-1.8-7.6-5.2-9.4-9.4c-1.9-4.4-1.9-9.3,0-13.7c0.9-2.1,2.2-4,3.8-5.6C7,3.8,8.9,2.5,11,1.6c4.4-1.9,9.3-1.9,13.7,0
						c2.1,0.9,4,2.2,5.6,3.8s2.9,3.5,3.8,5.6c1.8,4.4,1.8,9.3,0,13.7c-0.9,2.1-2.2,4-3.8,5.6c-1.6,1.6-3.5,2.9-5.6,3.8
						C22.6,35,20.2,35.4,17.9,35.4L17.9,35.4z"/>
				</g>
				<g id="Clip-50">
				</g>
			</g>
		</g>
	</g>
</g>
<g id="Layer_2">
	
		<linearGradient id="SVGID_1_" gradientUnits="userSpaceOnUse" x1="208.2504" y1="290.61" x2="208.2504" y2="96.8" gradientTransform="matrix(1 0 0 -1 0 320)">
		<stop  offset="0" style="stop-color:#F7BA17"/>
		<stop  offset="1" style="stop-color:#F4951F"/>
	</linearGradient>
	<path class="st11" d="M199.7,195.9c7.4,2.5,15.2,3.4,22.9,2.5c6.7-0.9,13.1-2.5,18.9-6c3.4-2.2,6.7-4.5,9.8-7.1
		c1.7-1.6,3.3-3.3,4.7-5.2c-0.6,0-1.2,0.2-1.6,0.6c-2.9,2.1-5.7,4.5-8.9,6.1c-10,5.5-21.6,7.3-32.8,5.2c-16.9-3-30.5-11.3-39.7-26.1
		c-5.1-8.3-8-17.7-8.3-27.4c-0.3-9.3,0.6-18.6,2.6-27.7c0.4-1.8,0.7-3.7,1.1-5.7c-0.4,0.3-0.8,0.4-0.8,0.6c-1.9,4.7-4.5,9-5.4,14.1
		c-1.6,9.4-2.6,18.8-1.6,28.3c1,11.1,5.5,21.7,12.7,30.2C180.4,186.6,189.5,192.6,199.7,195.9z"/>
	
		<linearGradient id="SVGID_2_" gradientUnits="userSpaceOnUse" x1="293.785" y1="221.255" x2="293.975" y2="221.255" gradientTransform="matrix(1 0 0 -1 0 320)">
		<stop  offset="0" style="stop-color:#F7BA17"/>
		<stop  offset="1" style="stop-color:#F4951F"/>
	</linearGradient>
	<path class="st12" d="M294,98.8l0-0.1l-0.1-0.1L294,98.8z"/>
	
		<linearGradient id="SVGID_3_" gradientUnits="userSpaceOnUse" x1="220.4413" y1="205.465" x2="308.3817" y2="205.465" gradientTransform="matrix(1 0 0 -1 0 320)">
		<stop  offset="0" style="stop-color:#F7BA17"/>
		<stop  offset="1" style="stop-color:#F4951F"/>
	</linearGradient>
	<path class="st13" d="M235.4,57.7c-5-5.7-8.8-12.4-10.9-19.7c-0.6-2.1-1.1-4.3-1.7-6.5c-0.3,0.2-0.5,0.3-0.6,0.4
		c-2.6,7.4-2.3,14.6,1.5,21.4c4.1,7.5,9.7,14,16.5,19.2c7.2,5.5,14.5,10.8,21.8,16c8,5.8,16,11.7,22.6,19.2
		c5.9,6.5,10.5,14.1,13.6,22.3c4.7,12.7,6.5,26.4,5.2,39.9c-0.7,7.4-2.5,14.6-5.5,21.4c-0.9,2-1.9,4-2.8,6l0.5,0.2
		c0.6-1.1,1.1-2.2,1.8-3.3c3.3-5.1,5.8-10.6,7.6-16.4c2.4-7.4,3.5-15.1,3.3-22.9c-0.3-5.7-0.9-11.5-1.9-17.1
		c-2.9-17.7-11.9-32-25.1-43.7c-7.1-6.3-15-11.6-22.7-17l0,0C250.3,71.3,242,65.5,235.4,57.7z"/>
	
		<linearGradient id="SVGID_4_" gradientUnits="userSpaceOnUse" x1="231.2202" y1="241.26" x2="231.2202" y2="86.96" gradientTransform="matrix(1 0 0 -1 0 320)">
		<stop  offset="0" style="stop-color:#F47F20"/>
		<stop  offset="1" style="stop-color:#ED2426"/>
	</linearGradient>
	<path class="st14" d="M295.2,100.6c-0.4-0.5-0.7-1-1.1-1.7c-10.4-11.7-22.8-19.1-35.2-28.4c-5-3.4-9.8-7.2-14.3-11.2
		c-8.1-7.5-13.9-16.4-15.9-27.4c-1.2-7.2-1.2-14.6,0.1-21.9c0.5-3.1,1.1-6.2,1.8-9.5c-0.3,0.2-0.5,0.5-0.8,0.7
		c-6.5,11.1-11.9,22.7-14.8,35.4c-4.1,18.3-0.5,34.8,11.2,49.5c2.9,3.7,6,7.2,9.3,10.6c5.2,5.4,10.7,10.5,16.1,15.8
		c4.2,4,7.9,8.5,11,13.4c5.3,8.2,6.4,18.4,3.1,27.6c-1.6,4.7-3.9,9.2-6.6,13.3c-10.9,16.2-26.2,22.5-45.2,19.7
		c-22.1-3.3-43.5-21.6-43.3-51.2c0.1-9.2,1.3-18.4,3.4-27.4c4.2-18,10.5-35.4,18.8-51.9c0.4-0.8,0.8-1.7,1.2-2.6
		c-0.7,0.3-1.3,0.8-1.7,1.4c-6.7,10.5-13.6,20.9-20,31.6c-7.5,12.4-13.7,25.5-18.4,39.2c-4.4,13.4-6.4,27-4.1,41.1
		c5.9,37.8,37.5,67.1,75.6,69.6c22.3,1.5,42.2-4.9,59.5-19.1c15.3-12.6,24.8-28.8,28.1-48.4c1.5-9.1,1.1-18.2-0.1-27.3
		C310.5,126.5,305.1,112.6,295.2,100.6z M251.4,185.2c-3.1,2.6-6.4,5-9.8,7.1c-5.8,3.5-12.2,5.2-18.9,6c-7.7,0.9-15.6,0-22.9-2.5
		c-10.2-3.2-19.3-9.3-26.2-17.6c-7.3-8.5-11.7-19.1-12.7-30.2c-0.9-9.5,0.1-18.9,1.6-28.3c0.9-5.1,3.5-9.4,5.4-14.1
		c0.1-0.2,0.4-0.3,0.8-0.6c-0.4,2.1-0.8,3.9-1.1,5.7c-2,9.1-2.9,18.4-2.6,27.7c0.3,9.7,3.2,19.1,8.3,27.4
		c9.2,14.8,22.8,23,39.7,26.1c11.2,2.1,22.8,0.2,32.8-5.2c3.1-1.7,5.9-4.1,8.9-6.1c0.4-0.4,1-0.6,1.6-0.6
		C254.6,181.9,253.1,183.6,251.4,185.2z M305.1,177.9c-1.8,5.8-4.3,11.3-7.6,16.4c-0.7,1-1.2,2.2-1.8,3.3l-0.5-0.2
		c0.9-2,1.9-4,2.8-6c3-6.8,4.8-14,5.5-21.4c1.3-13.5-0.5-27.1-5.2-39.9c-3.1-8.2-7.8-15.8-13.6-22.3c-6.6-7.5-14.6-13.4-22.6-19.2
		c-7.3-5.3-14.6-10.5-21.8-16c-6.8-5.2-12.4-11.7-16.5-19.2c-3.8-6.8-4.1-14.1-1.5-21.4c0-0.1,0.3-0.2,0.6-0.4
		c0.6,2.2,1.1,4.4,1.7,6.5c2.2,7.3,5.9,14,10.9,19.7c6.7,7.7,15,13.5,23.2,19.3c7.8,5.4,15.6,10.7,22.7,17
		c13.2,11.8,22.2,26.1,25.1,43.7c1,5.7,1.7,11.4,1.9,17.1C308.6,162.7,307.5,170.5,305.1,177.9z"/>
	
		<linearGradient id="SVGID_5_" gradientUnits="userSpaceOnUse" x1="294.9739" y1="265.85" x2="294.9739" y2="232.63" gradientTransform="matrix(1 0 0 -1 0 320)">
		<stop  offset="0" style="stop-color:#F7BA17"/>
		<stop  offset="1" style="stop-color:#F4951F"/>
	</linearGradient>
	<path class="st15" d="M302.5,67.4c4.1,8.1,3,16.2-3.5,23.3c5.3-1.5,10.3-8.6,10.8-14.8c0.9-10-4.1-16.9-11.8-20.5
		c-5.6-2.6-14.4-1.7-18.1,2.3C289.8,55.7,298,58.4,302.5,67.4z"/>
	<path class="st16" d="M315.2,69.4c-2.1-12-12.4-20.8-24.6-20.9c-5.9-0.1-11.7,2-16.3,5.8c-6.3,5.2-9.2,12.1-9.2,20.4l0,0
		c0,0.2,0,0.3,0,0.5c10.3,7.3,20.4,14,29,23.8l-0.1-0.2c7.1-1.4,12.8-4.6,16.9-10.3C314.9,82.9,316.4,76,315.2,69.4z M309.9,75.9
		c-0.6,6.1-5.6,13.3-10.8,14.8c6.5-7.1,7.6-15.2,3.5-23.3c-4.6-8.9-12.7-11.7-22.6-9.7c3.8-4,12.6-5,18.1-2.3
		C305.8,59,310.8,65.9,309.9,75.9z"/>
	<path class="st17" d="M436.5,74.7h42.3c9,33.4,17.9,66.8,26.9,100.1l0.6,0.1c10.9-33.3,21.9-66.7,32.8-100.1h32.2l30.5,99.9h0.6
		c3.4-11,6.5-22.1,9.8-33.1s6.5-22.3,9.8-33.4l9.8-33.4h42.2l-49.8,155.9h-41.4c-9.4-29.8-18.8-59.6-28.2-89.5h-0.7
		c-9.9,29.8-19.7,59.7-29.6,89.5h-41.3C467.5,178.8,452,126.9,436.5,74.7z"/>
	<path class="st17" d="M756.8,70c12.5-0.1,24.6,1.7,36.2,6.5c18.7,7.7,32.2,21.1,41.4,38.8c7.3,14.1,9.9,29.1,8.5,44.8
		c-2.3,26.9-15,47.7-37.1,62.9c-9.3,6.4-19.7,10-30.8,11.8c-15.3,2.5-30.6,2.1-45.6-2c-21.9-6.1-38-19.7-48.8-39.4
		c-12.8-23.4-13.4-47.6-3.6-72.2c7.2-18.2,19.4-32.2,36.7-41.5c11.9-6.3,24.8-9.1,38.2-9.6C753.5,70,755.1,70,756.8,70z
		 M801.1,153.3c0.5-24.8-20.8-44.1-44.1-44.1c-23,0-44.3,18-44.7,43.9c-0.4,20.9,17.4,44,44.2,44.1
		C782.5,197.2,801.6,175.7,801.1,153.3z"/>
	<path class="st17" d="M987.3,230.6c-1.4,0.1-2.2,0.1-3,0.1c-14.9,0-29.8,0-44.7,0c-1.7,0.1-3.3-0.8-4.1-2.3
		c-11.7-18.3-23.5-36.5-35.2-54.7c-0.5-0.8-1.2-1.5-2-1.9v58.8h-40.4V74.8c0.9-0.1,1.7-0.2,2.4-0.2c20.2,0,40.5,0,60.7,0
		c7.4-0.1,14.7,1,21.7,3.4c13.5,4.8,22.3,14.3,27,27.6c3.8,10.7,3.9,22.4,0.5,33.2c-3.9,13-12.5,21.7-25.3,26.1c-2,0.7-4,1.2-6.4,2
		c5.3,7.3,10.8,14.2,16.2,21.2c5.3,7,10.7,14,16.1,21S981.5,223.1,987.3,230.6z M898.4,144.4c3.9,0,7.8,0.2,11.5-0.1
		c3.1-0.2,6.1-0.9,9-1.9c7.3-2.7,11.7-9.7,11.6-18c0-7.8-4.9-14.7-12.2-17.2c-1.7-0.6-3.5-1-5.3-1.3c-4.8-0.8-9.7-0.4-14.7-0.5
		L898.4,144.4z"/>
	<path class="st17" d="M1095,147.5l58.8,83.1c-1.1,0.1-1.7,0.2-2.2,0.2c-14.7,0-29.4,0-44.1,0c-1.5,0.1-3-0.7-3.7-2.1
		c-9.8-15-19.7-30.1-29.6-45.1l-2.5-3.7c-0.8,1-1.3,1.7-1.9,2.5c-10.6,15.3-21.1,30.7-31.6,46c-0.9,1.6-2.6,2.5-4.4,2.4
		c-14.3-0.1-28.7-0.1-43-0.1h-2.3c-0.1-0.1-0.1-0.3-0.2-0.5c0-0.1,0-0.2,0-0.3c0.1-0.2,0.1-0.3,0.2-0.5l59.8-81.7
		c0.1-0.2,0.2-0.4,0.2-0.6l-49.7-72.5c1.4-0.1,2.1-0.1,2.9-0.1c14.7,0,29.4,0,44.1-0.1c1.7-0.1,3.3,0.8,4,2.4
		c6.7,11.9,13.6,23.8,20.4,35.7c0.4,0.8,0.9,1.5,1.5,2.5c0.7-1.1,1.3-1.9,1.8-2.8c7.1-11.8,14.2-23.6,21.2-35.5
		c0.7-1.5,2.2-2.4,3.8-2.2c14.8,0.1,29.6,0.1,44.4,0.1c0.7,0,1.4,0.1,2,0.1c0.1,0.2,0.2,0.3,0.2,0.4c0,0.1,0,0.2,0,0.3L1095,147.5z"
		/>
	
		<linearGradient id="SVGID_6_" gradientUnits="userSpaceOnUse" x1="70.025" y1="243.27" x2="70.025" y2="87.93" gradientTransform="matrix(1 0 0 -1 0 320)">
		<stop  offset="0" style="stop-color:#F47D27"/>
		<stop  offset="1" style="stop-color:#EE2829"/>
	</linearGradient>
	<path class="st18" d="M0.3,75h40.2c0,1,0.1,2.1,0.1,3.1v56.7h58.8V75h40.4v155.6H99.6c-0.1-1-0.2-2.1-0.2-3.1c0-19.4,0-38.8,0-58.3
		v-3.4H40.6v64.7H0.3V75z"/>
	
		<linearGradient id="SVGID_7_" gradientUnits="userSpaceOnUse" x1="374.8213" y1="243.27" x2="374.8213" y2="87.93" gradientTransform="matrix(1 0 0 -1 0 320)">
		<stop  offset="0" style="stop-color:#F47D27"/>
		<stop  offset="1" style="stop-color:#EE2829"/>
	</linearGradient>
	<path class="st19" d="M395,108.4v121.9c-2.2,0.6-36,0.8-40.5,0.3c-0.2-6.7,0-13.5-0.1-20.3s0-13.4,0-20.1v-81.6h-32.5
		c-0.7-2.2-0.8-30.1-0.2-33.4h106.7v33.3H395z"/>
	<path class="st17" d="M1175.2,234.8c-2.4,0-4.7-0.5-6.9-1.4c-4.2-1.8-7.6-5.2-9.4-9.4c-1.9-4.4-1.9-9.3,0-13.7
		c0.9-2.1,2.2-4,3.8-5.6c1.6-1.6,3.5-2.9,5.6-3.8c4.4-1.9,9.3-1.9,13.7,0c2.1,0.9,4,2.2,5.6,3.8c1.6,1.6,2.9,3.5,3.8,5.6
		c1.8,4.4,1.8,9.3,0,13.7c-0.9,2.1-2.2,4-3.8,5.6c-1.6,1.6-3.5,2.9-5.6,3.8C1179.8,234.4,1177.5,234.8,1175.2,234.8z M1175.2,232.5
		c2,0,4.1-0.4,5.9-1.2c1.8-0.8,3.4-1.9,4.7-3.2c1.3-1.4,2.4-3.1,3.1-4.9c1.5-3.9,1.5-8.1,0-12c-0.7-1.8-1.7-3.4-3.1-4.8
		c-1.3-1.4-2.9-2.5-4.7-3.2c-1.9-0.8-3.9-1.2-5.9-1.2c-2,0-4.1,0.4-5.9,1.2c-1.8,0.8-3.4,1.8-4.7,3.2c-1.3,1.4-2.4,3-3.1,4.8
		c-1.5,3.9-1.5,8.1,0,12c0.7,1.8,1.8,3.4,3.1,4.9c1.3,1.4,2.9,2.5,4.7,3.2C1171.1,232.1,1173.1,232.5,1175.2,232.5z M1183.9,227
		h-2.9l-5.6-9h-4.4v9h-2.4v-19.6h8.6c2.6,0,4.4,0.5,5.4,1.4c1,1,1.6,2.4,1.5,3.8c0,0.8-0.1,1.7-0.5,2.5c-0.3,0.7-0.7,1.2-1.3,1.6
		c-0.6,0.4-1.3,0.8-2,0.9c-0.8,0.2-1.6,0.3-2.4,0.4L1183.9,227z M1174.7,216h2.2c0.8,0,1.5-0.1,2.2-0.3c0.7-0.2,1.3-0.5,1.7-1
		c0.5-0.6,0.7-1.4,0.7-2.2c0-0.6-0.1-1.3-0.4-1.8c-0.3-0.4-0.7-0.8-1.1-1c-0.5-0.2-1-0.4-1.6-0.5c-0.6-0.1-1.2-0.1-1.8-0.1h-5.6v7
		L1174.7,216z"/>
	<path class="st17" d="M49.2,311.6l11.9-9.7c4.4-3.7,6.2-5.6,6.2-8.6s-2-4.6-4.8-4.6s-4.6,1.5-7.3,4.8l-5.5-4.4
		c3.5-4.8,6.9-7.4,13.3-7.4c7.4,0,12.3,4.3,12.3,11v0.1c0,6-3.1,8.9-9.4,13.8l-5.8,4.5h15.6v6.8H49.2V311.6z"/>
	<path class="st17" d="M100.3,310.1H82.8l-1.3-5.6l19.6-22.7h6.6v21.9h4.8v6.4h-4.8v7.7h-7.5V310.1z M100.3,303.7v-11.1l-9.5,11.1
		H100.3z"/>
	<path class="st17" d="M139.8,282.1h7.9v14.1h14.5v-14.1h7.9v35.7h-7.9v-14.3h-14.5v14.3h-7.9V282.1z"/>
	<path class="st17" d="M179.2,300v-0.1c0-10.1,8-18.5,19-18.5s18.9,8.2,18.9,18.4v0.1c0,10.1-8,18.5-19,18.5S179.2,310.2,179.2,300z
		 M208.9,300v-0.1c0-6.1-4.5-11.2-10.8-11.2s-10.7,5-10.7,11.1v0.1c0,6.1,4.5,11.2,10.8,11.2S208.9,306.2,208.9,300L208.9,300z"/>
	<path class="st17" d="M225.7,302.5v-20.4h7.9v20.2c0,5.8,2.9,8.8,7.7,8.8s7.7-2.9,7.7-8.6v-20.4h7.9v20.1
		c0,10.8-6.1,16.1-15.7,16.1S225.7,313,225.7,302.5z"/>
	<path class="st17" d="M267.5,282.1h16.3c4.5,0,8,1.3,10.4,3.6c2.1,2.2,3.2,5.1,3.1,8.1v0.1c0.2,5-2.9,9.5-7.6,11.1l8.7,12.8h-9.2
		l-7.6-11.4h-6.2v11.4h-7.9L267.5,282.1z M283.3,299.4c3.8,0,6-2,6-5v-0.1c0-3.4-2.3-5.1-6.2-5.1h-7.8v10.2L283.3,299.4z"/>
	<path class="st17" d="M325.1,282.1h7.9v35.7h-7.9V282.1z"/>
	<path class="st17" d="M344,282.1h7.3l16.7,22v-22h7.8v35.7h-6.7l-17.3-22.7v22.7H344V282.1z"/>
	<path class="st17" d="M386.8,282.1h27.2v7.1h-19.3v7.6h17v7.1h-17v13.8h-7.9V282.1z"/>
	<path class="st17" d="M422.2,282.1h16.3c4.5,0,8.1,1.3,10.4,3.6c2.1,2.2,3.2,5.1,3.1,8.1v0.1c0.2,5-2.9,9.5-7.7,11.1l8.7,12.8h-9.2
		l-7.7-11.4H430v11.4h-7.8V282.1z M438,299.4c3.8,0,6-2,6-5v-0.1c0-3.4-2.3-5.1-6.2-5.1H430v10.2L438,299.4z"/>
	<path class="st17" d="M474.4,281.8h7.2l15.3,36h-8.2l-3.3-8h-15.1l-3.3,8h-8L474.4,281.8z M482.7,302.8l-4.7-11.6l-4.7,11.6H482.7z
		"/>
	<path class="st17" d="M504.3,282.1h16.3c4.5,0,8.1,1.3,10.4,3.6c2.1,2.2,3.2,5.1,3.1,8.1v0.1c0.2,5-2.9,9.5-7.7,11.1l8.7,12.8H526
		l-7.7-11.4h-6.2v11.4h-7.9V282.1z M520.1,299.4c3.8,0,6-2,6-5v-0.1c0-3.4-2.3-5.1-6.2-5.1h-7.8v10.2L520.1,299.4z"/>
	<path class="st17" d="M543.6,282.1h26.9v7h-19.1v7.2h16.8v7h-16.8v7.5h19.4v7h-27.2V282.1z"/>
	<path class="st17" d="M580.4,282.1h13.9c11.2,0,19,7.7,19,17.7v0.1c0,10-7.8,17.9-19,17.9h-13.9V282.1z M588.3,289.2v21.5h6
		c6.4,0,10.8-4.3,10.8-10.6v-0.1c0-6.3-4.3-10.8-10.8-10.8L588.3,289.2z"/>
	<path class="st17" d="M640.7,282.1h27.2v7.1h-19.3v7.6h17v7.1h-17v13.8h-7.9V282.1z"/>
	<path class="st17" d="M676.4,282.1h7.9v35.7h-7.9V282.1z"/>
	<path class="st17" d="M702.7,289.3h-10.9v-7.2h29.6v7.2h-10.9v28.5h-7.9V289.3z"/>
	<path class="st17" d="M729,282.1h7.2l16.7,22v-22h7.8v35.7H754l-17.3-22.7v22.7H729V282.1z"/>
	<path class="st17" d="M771.7,282.1h26.9v7h-19.1v7.2h16.8v7h-16.8v7.5h19.4v7h-27.2V282.1z"/>
	<path class="st17" d="M805.8,312.6l4.6-5.6c3.2,2.6,6.6,4.3,10.7,4.3c3.2,0,5.2-1.3,5.2-3.4v-0.1c0-2-1.2-3-7.2-4.5
		c-7.2-1.8-11.8-3.8-11.8-10.9v-0.1c0-6.5,5.2-10.8,12.5-10.8c4.8-0.1,9.5,1.5,13.3,4.5l-4.1,5.9c-3.2-2.2-6.3-3.5-9.3-3.5
		s-4.6,1.4-4.6,3.1v0.1c0,2.4,1.5,3.1,7.7,4.7c7.2,1.9,11.3,4.5,11.3,10.7v0.1c0,7.1-5.4,11.1-13.1,11.1
		C815.3,318.3,809.9,316.3,805.8,312.6z"/>
	<path class="st17" d="M840.3,312.6l4.6-5.6c3.2,2.6,6.6,4.3,10.7,4.3c3.2,0,5.2-1.3,5.2-3.4v-0.1c0-2-1.2-3-7.2-4.5
		c-7.2-1.8-11.8-3.8-11.8-10.9v-0.1c0-6.5,5.2-10.8,12.5-10.8c4.8-0.1,9.5,1.5,13.3,4.5l-4.1,5.9c-3.2-2.2-6.3-3.5-9.3-3.5
		s-4.6,1.4-4.6,3.1v0.1c0,2.4,1.5,3.1,7.7,4.7c7.2,1.9,11.3,4.5,11.3,10.7v0.1c0,7.1-5.4,11.1-13.1,11.1
		C849.8,318.3,844.5,316.3,840.3,312.6z"/>
	<path class="st17" d="M893.4,312.6l4.6-5.6c3.2,2.6,6.6,4.3,10.7,4.3c3.2,0,5.2-1.3,5.2-3.4v-0.1c0-2-1.2-3-7.2-4.5
		c-7.2-1.8-11.8-3.8-11.8-10.9v-0.1c0-6.5,5.2-10.8,12.5-10.8c4.8-0.1,9.5,1.5,13.3,4.5l-4.1,5.9c-3.2-2.2-6.3-3.5-9.3-3.5
		s-4.6,1.4-4.6,3.1v0.1c0,2.4,1.5,3.1,7.7,4.7c7.2,1.9,11.3,4.5,11.3,10.7v0.1c0,7.1-5.4,11.1-13.1,11.1
		C902.9,318.3,897.5,316.3,893.4,312.6z"/>
	<path class="st17" d="M938.6,289.3h-10.9v-7.2h29.6v7.2h-10.9v28.5h-7.8V289.3z"/>
	<path class="st17" d="M964.6,302.5v-20.4h7.9v20.2c0,5.8,2.9,8.8,7.7,8.8s7.7-2.9,7.7-8.6v-20.4h7.8v20.1
		c0,10.8-6.1,16.1-15.7,16.1S964.6,313,964.6,302.5z"/>
	<path class="st17" d="M1006.4,282.1h13.9c11.2,0,19,7.7,19,17.7v0.1c0,10-7.8,17.9-19,17.9h-13.9L1006.4,282.1z M1014.2,289.2v21.5
		h6.1c6.4,0,10.8-4.3,10.8-10.6v-0.1c0-6.3-4.3-10.8-10.8-10.8L1014.2,289.2z"/>
	<path class="st17" d="M1048.6,282.1h7.9v35.7h-7.9V282.1z"/>
	<path class="st17" d="M1065.7,300v-0.1c0-10.1,8-18.5,19-18.5s18.9,8.2,18.9,18.4v0.1c0,10.1-8,18.5-19,18.5
		S1065.7,310.2,1065.7,300z M1095.4,300v-0.1c0-6.1-4.5-11.2-10.8-11.2s-10.7,5-10.7,11.1v0.1c0,6.1,4.5,11.2,10.8,11.2
		S1095.4,306.2,1095.4,300z"/>
</g>
</svg>
