<?xml version="1.0" encoding="utf-8"?>
<!-- Generator: Adobe Illustrator 24.1.0, SVG Export Plug-In . SVG Version: 6.00 Build 0)  -->
<svg version="1.1" id="Layer_1" xmlns="http://www.w3.org/2000/svg" xmlns:xlink="http://www.w3.org/1999/xlink" x="0px" y="0px"
	 viewBox="0 0 6376.7 791.5" style="enable-background:new 0 0 6376.7 791.5;" xml:space="preserve">
<style type="text/css">
	.st0{fill:#CE0E2D;}
	.st1{fill:#001689;}
</style>
<g>
	<g>
		<g>
			<g>
				<g>
					<polygon class="st0" points="2989.2,0 2989.2,791.5 3136.7,692.2 3284.3,791.5 3284.3,0 					"/>
				</g>
				<g>
					<g>
						<g>
							<polygon class="st0" points="2989.1,0 2989.1,791.5 3136.5,692.8 3284.1,791.5 3284.1,0 							"/>
						</g>
					</g>
				</g>
			</g>
			<g>
				<path class="st0" d="M3342.8,29.5c16.1,0,29.3,12.3,29.3,29.3c0,17-13.2,29.2-29.3,29.2s-29.2-12.2-29.2-29.2
					C3313.5,41.8,3326.6,29.5,3342.8,29.5z M3342.9,85.3c14.5,0,26.4-11,26.4-26.5s-11.8-26.6-26.4-26.6
					c-14.5,0-26.4,11.1-26.4,26.6S3328.3,85.3,3342.9,85.3z M3350.3,75.4c-0.9-1.1-1.3-2.1-1.7-3.8l-1.1-4.3
					c-0.9-3.3-3.7-4.6-7.2-4.6h-2.7v12.7h-7.1V40.9h13.5c7.7,0,12.7,3.4,12.7,10.7c0,5.7-4,8.6-9.6,8.9c3.6,0.6,6.3,1.6,7.5,5.4
					l1.3,5.2c0.5,1.6,1.1,3.2,2.1,4.3H3350.3z M3337.7,57.3h4.6c5.7,0,7.5-1.9,7.5-5.2c0-3.3-2.4-5.3-6.6-5.3h-5.5V57.3z"/>
			</g>
		</g>
		<g>
			<g>
				<path class="st1" d="M1376.4,151.9c42.1,1.8-121.3-108.2-472.4,165C706.8,470.8,682.6,562,791.2,346.1
					c98.1-195.1,129.1-129.8,181.5-129.4c6.9,0.1,10.1-3.5,9.8-8.3c-1.3-34.6-563.5-136.8-699.8-44c-44.1,30-17.9,74.5,22.9,93
					c36.8,16.7,42.6,16.9,43,14.2c1.5-8.9-66.4-18.7-59-56.8c17.2-88.5,421.1-66.7,558.1-40.6c83.6,16-31-22.7-179.4,125.9
					C485.1,483.8,365,685,162.8,675.8C12.4,668.9,0.3,510.7,81.5,450.5c65.6-48.6,149.2-59.1,226.6,1c13.3,10.3,20.3-4.1,16.2-10.3
					c-6.3-9.7-119.1-98.5-251.5-5.7c-229.9,161.2,126.5,512.6,487.9,66C659.5,384.2,740.6,236,829.6,223
					c-88.6,61.4-107,142.3-156.4,263.2c-44.5,108.9-65.6,96.1-85.1,127.5c-13,21.1-3.2,42.4,16.2,40.9c16.3-1.3,37.3-24.6,43.8-44.9
					c12.2-36.9,284.5-294.7,485.4-397.4C990.8,313.6,711.6,668.4,846.6,650.9c26.3-3.4,60.4-126.4,199.3-297.4
					C1131.4,248.1,1199,164,1376.4,151.9z"/>
				<path class="st1" d="M2797.9,143.7c-216.6,12.4-287.3,274.6-439.8,275.8c1.6,0,10.4-65.5-52.8-63.3
					c-180.8,6.4-231.3,267.8-336,264.8c-24.3-0.7-27.4-17.5,6.2-64.5c41.4-58,239.9-344.7,398-400.3c5.7-2,5-11.5-1.1-11
					c-249.1,21.5-402.2,443.7-558,477.1c-34,7.3-68.5-6.2-77.6-25.5c-15.6-33.3,20.2-76,24.4-82.7c102.4,44,276.7-143.8,173.4-155.7
					c-41.1-4.7-75.8,11.7-109.5,32.8c-116.5,73-118.5,190.5-185,220c-44.1,19.6-66.5-4.4-47.8-35.2c47.8-78.8,194-192.6,83.1-218.5
					c-42.9-10.2-105.8,31.1-157.4,66.2c132.8-174.4,186.7-227.1,289.4-270c1-0.4,0.6-3.1-1.1-3.4c-20.5-3.6-90.4,7-138.5,47.1
					c-241,200.8-264.7,409.2-406.8,415.2c-24.5,1-38-0.8-49-22.3c-46.6-91.3,156.2-263.9,169.1-197.2c2.1,10.8-6.6,20.1-23.9,34.2
					c-59.1,48.3,38.9,82.7,54.7-10.1c14.3-85-76.3-72.1-143.3-16.5c-131.5,109.1-101.7,199.3-174.7,217.3
					c-49.9,12.3-30.9-125.7,100.3-245.8c5-4.6,0.5-14.8-5.6-11.9c-71.8,33.7-169.2,126-169.2,243.8c0,45.1,55.9,77.9,131.5,8.5
					c21.7,45.1,117,66.7,201.4,0.2c3.9,22.2,18.5,43.8,44.4,41.4c24.1-164.2,220.8-306.4,254.9-264
					c34.5,43.1-140.7,160.6-112.8,231.3c19.7,50,103.9,27.8,145.5-11c21.6,45,131.5,66.8,216.1,0.2c4,22.8,62.2,83.6,158.3,1.9
					c10.1,20,41.5,39.3,67.3,41.4c106.6,8.8,207.6-168.3,216.3-190.2c0,0,44.2-6.7,63.1-19.8c-197.6,259.4,92.5,273.8,232.7,70.4
					c36.6-53.2,86.4-136.5,28.2-155.4c-85.3-27.7-266.2,170.6-96.8-25c55.3-63.9,109.2-131.2,229.9-180.6
					C2812.7,147.9,2805.6,142.4,2797.9,143.7z M1782.1,484.5c123.6-142.9,178.2-118.7,134.2-62.7
					C1866.2,485.5,1764.6,504.9,1782.1,484.5z M2276.7,491c-148.4,189.9-214.5,128.7-124.3,10.1
					C2284.6,331.2,2382.2,356.1,2276.7,491z M2532.1,428.7c153-89.3,122.5-13.7,52,71.9C2384.2,743.4,2295,567.1,2532.1,428.7z"/>
				<path class="st1" d="M1216.5,298.8c14.2,36.8,81.7,36.7,67.2,0C1269.6,262.2,1202.1,262.7,1216.5,298.8z"/>
			</g>
			<g>
				<g>
					<path class="st1" d="M4594.8,574.7c-0.8,0-1.6,0-2.5,0c-6.9,0-17.8,0-25.2,0h-72.5h-149.5V270V144.7c0.2-7.2,1.5-12.8,8.2-22.5
						h-7h-1.2h-0.5h-88.1h-0.4h-1.3h-7c7,10.1,8.1,15.7,8.3,23.3v6.1c0,1,0,2,0,3.2c0,8.5,0,22.8,0,29.5V270v240v82.3l-0.1-0.1
						c0,0,0,21.8,0,33.1c0,13.5,1.2,18.9-8.2,32.6h7h1.3h0.4h347.6c6.4,0.4,11.8,2,20.7,8.2v-7v-1.2v-0.6v-82.1v-0.5v-1.3v-7
						c-10,6.9-15.6,8.1-23.1,8.3H4594.8z"/>
					<path class="st1" d="M4650.1,201.6v0.4v1.3v7c13.7-9.5,19.1-8.2,32.6-8.2c11.3,0,33.1,0,33.1,0l-0.1,0h69.1h35.9v308v126.6
						c-0.3,6.6-1.9,12.1-8.2,21.3h7h1.2h0.5h88.9h0.4h1.3h7c-9.5-13.7-8.3-19.1-8.3-32.6c0-11.3,0-33.1,0-33.1l0,0.1v-82.2V202h35.1
						h69.1l-0.1,0c0,0,21.8,0,33.1,0c13.5,0,18.9-1.2,32.6,8.2v-7V202v-0.4v-79.4h-430.1V201.6z"/>
					<path class="st1" d="M4038.3,122.2h-1.3h-0.4h-88.9h-0.5h-1.2h-7c6.6,9.5,9.7,15,10,22v108.3v187.9v46.2
						c-19.2,60.7-83.5,92.8-160.5,92.8c-74.5,0-121.9-55.1-121.9-144.5V252.5V162v-7.2v-0.3V145c0.2-7.3,1.4-12.9,8.2-22.8h-7h-1.2
						h-0.5h-88.9h-0.4h-1.3h-7c7,10.2,8.2,15.8,8.3,23.5v4.6v0.2c0,1.4,0,2.8,0,4.3c0,11.3,0,33.1,0,33.1l0,0V270l0,184.9
						c0,120.3,87.1,215.5,211.8,215.5c84.2,0,129.3-34.1,160.5-64.6c0,0,0-0.1,0-0.1c0,0,0,0.1,0,0.1l0.1,52h87.3h0.4h1.3h7
						c-9.5-13.7-8.3-19.1-8.3-32.6c0-11.3,0-33.1,0-33.1l-0.1,0.1v-82.3v-51c0.1-1.4,0.2-2.7,0.2-4.1V270v-82.2l0,0
						c0,0,0-21.8,0-33.1c0-13.5-1.2-18.9,8.2-32.6H4038.3z"/>
					<path class="st1" d="M5645,630.1c-6.8-9.1-117.8-185.2-117.8-185.2c64.8-10,117.7-68.3,117.7-155.1
						c0-124.4-81.5-167.6-212.6-167.6h-193.2h-0.6h-1.1h-7c5.9,8.6,7.7,13.9,8.1,20v142.6v240.1v113c-0.5,6.1-2.2,11.4-8.1,20h7h1.1
						h0.6h87.9h0.5h1.2h7c-6.7-9.8-8-15.3-8.2-22.6V527.7v-70.2h115.7l70.2,117c31.8,51.1,43.4,63.8,33.5,83.5h122.9
						C5660.6,651.8,5657.8,647.3,5645,630.1 M5415.6,380.1h-88.1V200.3h88.1c86,0,138.6,20.1,138.6,89.4
						C5554.3,359.1,5500.8,380.1,5415.6,380.1"/>
					<path class="st1" d="M6298.2,657.9c-9.6-5.9-17.2-25.8-28.7-54.3l-170.9-443.7c-6.1-16.3-11.1-22.8-1.4-37.6h-25.3h-78.1h-25.3
						c9.7,14.8,4.7,21.4-1.4,37.6l-170.9,443.7c-11.5,28.5-19.1,48.4-28.7,54.3h125c-8.5-14.3-13.5-34,5.8-84.4l24.1-66.4h110.3h0.1
						h110l24.4,66.4c19.3,50.3,14.4,70.1,5.8,84.4H6298.2z M6032.9,434.1L6032.9,434.1h-79l78.9-203.7l78.9,203.7H6032.9z"/>
				</g>
				<g>
					<path class="st1" d="M6347.4,572.9c16.1,0,29.3,12.3,29.3,29.3c0,17-13.2,29.2-29.3,29.2s-29.2-12.2-29.2-29.2
						C6318.1,585.2,6331.2,572.9,6347.4,572.9z M6347.5,628.7c14.5,0,26.4-11,26.4-26.5s-11.8-26.6-26.4-26.6
						c-14.5,0-26.4,11.1-26.4,26.6S6332.9,628.7,6347.5,628.7z M6354.9,618.8c-0.9-1.1-1.3-2.1-1.7-3.8l-1.1-4.3
						c-0.9-3.3-3.7-4.6-7.2-4.6h-2.7v12.7h-7.1v-34.5h13.5c7.7,0,12.7,3.4,12.7,10.7c0,5.7-4,8.6-9.6,8.9c3.6,0.6,6.3,1.6,7.5,5.4
						l1.3,5.2c0.5,1.6,1.1,3.2,2.1,4.3H6354.9z M6342.3,600.7h4.6c5.7,0,7.5-1.9,7.5-5.2c0-3.3-2.4-5.3-6.6-5.3h-5.5V600.7z"/>
				</g>
			</g>
		</g>
	</g>
</g>
</svg>
